<svg width="24" height="24" viewBox="0 0 24 24" fill="none" xmlns="http://www.w3.org/2000/svg">
<rect width="24" height="24" rx="12" fill="#FEB808"/>
<path d="M17.4545 8.5H15.1364V8.22C15.1364 6.442 13.7318 5 12 5C10.2682 5 8.86364 6.442 8.86364 8.22V8.5H6.54545C6.24375 8.5 6 8.75025 6 9.06V18.44C6 18.7498 6.24375 19 6.54545 19H17.4545C17.7563 19 18 18.7498 18 18.44V9.06C18 8.75025 17.7563 8.5 17.4545 8.5ZM10.0909 8.22C10.0909 7.13675 10.9449 6.26 12 6.26C13.0551 6.26 13.9091 7.13675 13.9091 8.22V8.5H10.0909V8.22ZM16.7727 17.74H7.22727V9.76H8.86364V11.3C8.86364 11.377 8.925 11.44 9 11.44H9.95455C10.0295 11.44 10.0909 11.377 10.0909 11.3V9.76H13.9091V11.3C13.9091 11.377 13.9705 11.44 14.0455 11.44H15C15.075 11.44 15.1364 11.377 15.1364 11.3V9.76H16.7727V17.74Z" fill="white"/>
</svg>
