<svg width="24" height="24" viewBox="0 0 24 24" fill="none" xmlns="http://www.w3.org/2000/svg">
<rect width="24" height="24" rx="12" fill="#00B3FF"/>
<path d="M18.4066 10.6309L15.7737 10.2068L14.1691 7.46631C14.0849 7.32286 13.9667 7.20458 13.826 7.12289C13.6852 7.0412 13.5267 6.99888 13.3657 7.00002L6.64106 7.05604C6.44704 7.05776 6.25834 7.12262 6.10119 7.24162C5.94404 7.36061 5.82625 7.52782 5.76417 7.72002L5 10.0891V15.5361H6.60434C6.72906 15.96 6.98047 16.3309 7.32166 16.5944C7.66284 16.8578 8.07583 17 8.5 17C8.92416 17 9.33715 16.8578 9.67834 16.5944C10.0195 16.3309 10.2709 15.96 10.3957 15.5361H13.371C13.4957 15.96 13.7471 16.3309 14.0883 16.5944C14.4295 16.8578 14.8425 17 15.2667 17C15.6908 17 16.1038 16.8578 16.445 16.5944C16.7862 16.3309 17.0376 15.96 17.1623 15.5361H19V11.3542C19.0008 11.1792 18.9412 11.0098 18.8323 10.8769C18.7233 10.7441 18.5722 10.6568 18.4066 10.6309ZM11.0667 7.99495L13.3731 7.97574L14.6594 10.1727L11.0667 10.1714V7.99495ZM6.64853 8.03179L10.1333 8.00276V10.1711L5.95903 10.1695L6.64853 8.03179ZM8.5 16.024C8.29233 16.024 8.08932 15.9596 7.91665 15.839C7.74398 15.7184 7.6094 15.5469 7.52992 15.3463C7.45045 15.1457 7.42966 14.925 7.47017 14.7121C7.51069 14.4991 7.61069 14.3035 7.75754 14.15C7.90438 13.9965 8.09147 13.8919 8.29515 13.8495C8.49883 13.8072 8.70995 13.8289 8.90182 13.912C9.09368 13.9951 9.25767 14.1358 9.37304 14.3163C9.48842 14.4969 9.55 14.7091 9.55 14.9262C9.54969 15.2173 9.43896 15.4963 9.24212 15.7021C9.04527 15.9079 8.77838 16.0237 8.5 16.024ZM15.2667 16.024C15.059 16.024 14.856 15.9596 14.6833 15.839C14.5106 15.7184 14.3761 15.5469 14.2966 15.3463C14.2171 15.1457 14.1963 14.925 14.2368 14.7121C14.2774 14.4991 14.3774 14.3035 14.5242 14.15C14.671 13.9965 14.8581 13.8919 15.0618 13.8495C15.2655 13.8072 15.4766 13.8289 15.6685 13.912C15.8603 13.9951 16.0243 14.1358 16.1397 14.3163C16.2551 14.4969 16.3167 14.7091 16.3167 14.9262C16.3164 15.2173 16.2056 15.4963 16.0088 15.7021C15.8119 15.9079 15.545 16.0237 15.2667 16.024ZM18.0667 14.5603H17.2184C17.1364 14.0815 16.896 13.648 16.5392 13.3359C16.1824 13.0237 15.7319 12.8526 15.2667 12.8526C14.8014 12.8526 14.3509 13.0237 13.9941 13.3359C13.6373 13.648 13.3969 14.0815 13.3149 14.5603H10.4518C10.3698 14.0815 10.1293 13.648 9.77253 13.3359C9.41572 13.0237 8.96527 12.8526 8.5 12.8526C8.03473 12.8526 7.58428 13.0237 7.22747 13.3359C6.87066 13.648 6.63022 14.0815 6.54822 14.5603H5.93333V11.1458L15.5737 11.1619L18.0667 11.5635V14.5603Z" fill="#FEFEFE"/>
</svg>
