<svg width="19" height="18" viewBox="0 0 19 18" fill="none" xmlns="http://www.w3.org/2000/svg">
<path fill-rule="evenodd" clip-rule="evenodd" d="M17.9433 0.193439C18.2897 0.388919 18.5443 0.71398 18.6511 1.09714C18.7579 1.4803 18.7081 1.89019 18.5128 2.23666L10.1745 17.0184C9.97906 17.3648 9.654 17.6194 9.27084 17.7262C8.88768 17.8329 8.4778 17.7832 8.13132 17.5878L0.740471 13.4187C0.4013 13.2195 0.153926 12.8951 0.0516271 12.5153C-0.0506717 12.1355 0.00029027 11.7307 0.193537 11.3882C0.386784 11.0456 0.706853 10.7926 1.08481 10.6837C1.46276 10.5748 1.86836 10.6188 2.21425 10.806L8.29877 14.2382L15.9001 0.762882C16.0956 0.416467 16.4206 0.161872 16.8038 0.0550858C17.187 -0.0517006 17.5969 -0.00193466 17.9433 0.193439Z" fill="#03DDDD"/>
</svg>
