<svg width="24" height="24" viewBox="0 0 24 24" fill="none" xmlns="http://www.w3.org/2000/svg">
<rect width="24" height="24" rx="12" fill="#AC60EE"/>
<path d="M12 16.4545C12.7 16.4545 13.2727 17.0273 13.2727 17.7273C13.2727 18.4273 12.7 19 12 19C11.3 19 10.7273 18.4273 10.7273 17.7273C10.7273 17.0273 11.3 16.4545 12 16.4545ZM12 5C12.7 5 13.2727 5.57273 13.2727 6.27273C13.2727 6.97273 12.7 7.54545 12 7.54545C11.3 7.54545 10.7273 6.97273 10.7273 6.27273C10.7273 5.57273 11.3 5 12 5ZM8.18182 14.5455C8.88182 14.5455 9.45455 15.1182 9.45455 15.8182C9.45455 16.5182 8.88182 17.0909 8.18182 17.0909C7.48182 17.0909 6.90909 16.5182 6.90909 15.8182C6.90909 15.1182 7.48182 14.5455 8.18182 14.5455ZM6.27273 10.7273C6.97273 10.7273 7.54545 11.3 7.54545 12C7.54545 12.7 6.97273 13.2727 6.27273 13.2727C5.57273 13.2727 5 12.7 5 12C5 11.3 5.57273 10.7273 6.27273 10.7273ZM8.18182 6.90909C8.88182 6.90909 9.45455 7.48182 9.45455 8.18182C9.45455 8.88182 8.88182 9.45455 8.18182 9.45455C7.48182 9.45455 6.90909 8.88182 6.90909 8.18182C6.90909 7.48182 7.48182 6.90909 8.18182 6.90909ZM15.8182 14.5455C16.5182 14.5455 17.0909 15.1182 17.0909 15.8182C17.0909 16.5182 16.5182 17.0909 15.8182 17.0909C15.1182 17.0909 14.5455 16.5182 14.5455 15.8182C14.5455 15.1182 15.1182 14.5455 15.8182 14.5455ZM17.7273 10.7273C18.4273 10.7273 19 11.3 19 12C19 12.7 18.4273 13.2727 17.7273 13.2727C17.0273 13.2727 16.4545 12.7 16.4545 12C16.4545 11.3 17.0273 10.7273 17.7273 10.7273ZM15.8182 6.90909C16.5182 6.90909 17.0909 7.48182 17.0909 8.18182C17.0909 8.88182 16.5182 9.45455 15.8182 9.45455C15.1182 9.45455 14.5455 8.88182 14.5455 8.18182C14.5455 7.48182 15.1182 6.90909 15.8182 6.90909Z" fill="#FEFEFE"/>
</svg>
