<svg width="24" height="24" viewBox="0 0 24 24" fill="none" xmlns="http://www.w3.org/2000/svg">
<rect width="24" height="24" rx="12" fill="#F6174F"/>
<path d="M5.73682 11.6316V17.5263C5.73682 17.9172 5.89208 18.292 6.16845 18.5684C6.44482 18.8447 6.81966 19 7.2105 19H16.0526C16.4435 19 16.8183 18.8447 17.0947 18.5684C17.371 18.292 17.5263 17.9172 17.5263 17.5263V11.6316" stroke="#FEFEFE" stroke-linecap="round" stroke-linejoin="round"/>
<path d="M11.6316 7.57895C11.6316 6.89497 11.3599 6.239 10.8762 5.75536C10.3926 5.27171 9.73659 5 9.05262 5C8.56406 5 8.09551 5.19408 7.75005 5.53954C7.40459 5.885 7.21051 6.35355 7.21051 6.84211C7.21051 7.33066 7.40459 7.79921 7.75005 8.14467C8.09551 8.49013 8.56406 8.68421 9.05262 8.68421H11.6316M11.6316 7.57895V8.68421M11.6316 7.57895C11.6316 6.89497 11.9033 6.239 12.3869 5.75536C12.8706 5.27171 13.5265 5 14.2105 5C14.6991 5 15.1676 5.19408 15.5131 5.53954C15.8585 5.885 16.0526 6.35355 16.0526 6.84211C16.0526 7.08401 16.005 7.32355 15.9124 7.54705C15.8198 7.77054 15.6841 7.97362 15.5131 8.14467C15.342 8.31573 15.1389 8.45141 14.9155 8.54399C14.692 8.63656 14.4524 8.68421 14.2105 8.68421H11.6316" stroke="#FEFEFE" stroke-linejoin="round"/>
<path d="M11.6316 11.6316V19M5 8.6842H18.2632V11.6316H5V8.6842Z" stroke="#FEFEFE" stroke-linecap="round" stroke-linejoin="round"/>
</svg>
