<svg width="24" height="24" viewBox="0 0 24 24" fill="none" xmlns="http://www.w3.org/2000/svg">
<rect width="24" height="24" rx="12" fill="#0361DD"/>
<path d="M15.6835 11.8134C16.5865 12.8781 17.0981 14.2196 17.1333 15.6152C17.1333 17.8745 14.8348 18.9621 12 18.9621C9.16513 18.9621 6.86664 17.8745 6.86664 15.6152C6.90307 14.2194 7.41549 12.878 8.3189 11.8134" stroke="#FEFEFE" stroke-linecap="round" stroke-linejoin="round"/>
<path d="M12 15.7334C12.3094 15.7334 12.6061 15.6105 12.8249 15.3917C13.0437 15.1729 13.1666 14.8762 13.1666 14.5667C13.1666 14.2573 13.0437 13.9606 12.8249 13.7418C12.6061 13.523 12.3094 13.4001 12 13.4001C11.6906 13.4001 11.3938 13.523 11.175 13.7418C10.9562 13.9606 10.8333 14.2573 10.8333 14.5667C10.8333 14.8762 10.9562 15.1729 11.175 15.3917C11.3938 15.6105 11.6906 15.7334 12 15.7334Z" stroke="#FEFEFE" stroke-linecap="round" stroke-linejoin="round"/>
<path d="M13.1666 9.66674C13.1048 9.66674 13.0454 9.64216 13.0017 9.5984C12.9579 9.55464 12.9333 9.49529 12.9333 9.43341C12.9333 9.37152 12.9579 9.31217 13.0017 9.26842C13.0454 9.22466 13.1048 9.20007 13.1666 9.20007M13.1666 9.66674C13.2285 9.66674 13.2879 9.64216 13.3316 9.5984C13.3754 9.55464 13.4 9.49529 13.4 9.43341C13.4 9.37152 13.3754 9.31217 13.3316 9.26842C13.2879 9.22466 13.2285 9.20007 13.1666 9.20007M10.8333 9.66674C10.7714 9.66674 10.7121 9.64216 10.6683 9.5984C10.6246 9.55464 10.6 9.49529 10.6 9.43341C10.6 9.37152 10.6246 9.31217 10.6683 9.26842C10.7121 9.22466 10.7714 9.20007 10.8333 9.20007M10.8333 9.66674C10.8952 9.66674 10.9545 9.64216 10.9983 9.5984C11.0421 9.55464 11.0666 9.49529 11.0666 9.43341C11.0666 9.37152 11.0421 9.31217 10.9983 9.26842C10.9545 9.22466 10.8952 9.20007 10.8333 9.20007" stroke="#FEFEFE"/>
<path d="M15.2667 5.53456C15.2669 5.43389 15.2386 5.33521 15.1852 5.24992C15.1317 5.16464 15.0551 5.09624 14.9644 5.05263C14.8737 5.00902 14.7725 4.99199 14.6724 5.0035C14.5724 5.01501 14.4777 5.05459 14.3993 5.11767L13.4311 6.27065C12.9702 6.11314 12.487 6.03079 12 6.02674C11.5139 6.03152 11.0318 6.11429 10.572 6.27189L9.6007 5.11767C9.52217 5.05485 9.4275 5.01548 9.32758 5.0041C9.22766 4.99273 9.12656 5.0098 9.03592 5.05337C8.94528 5.09693 8.86879 5.16521 8.81525 5.25034C8.76172 5.33547 8.73332 5.43399 8.73332 5.53456C8.73332 10.1427 7.79999 7.14798 7.79999 10.5634C7.79999 12.3317 10.1333 12.8967 12 12.8967C13.8667 12.8967 16.2 12.3317 16.2 10.5634C16.2 7.15482 15.2667 10.1334 15.2667 5.53456Z" stroke="#FEFEFE" stroke-linecap="round" stroke-linejoin="round"/>
<path d="M8.12853 8.65251C7.85121 8.42218 7.51434 8.27507 7.1569 8.22822C6.79945 8.18138 6.43605 8.2367 6.10874 8.38779C5.78143 8.53888 5.50359 8.77957 5.30738 9.08199C5.11116 9.38442 5.00459 9.73622 5 10.0967V11.4967C5.03844 12.1025 5.25469 12.6835 5.62169 13.1671C5.98869 13.6506 6.49014 14.0152 7.06329 14.2152M15.8578 12.0206C16.2514 11.9721 16.6509 12.0078 17.0297 12.1254C17.4085 12.2429 17.7581 12.4396 18.0551 12.7024C18.3522 12.9651 18.5901 13.288 18.753 13.6497C18.9159 14.0113 19.0001 14.4034 19 14.8001V16.1634C19 16.5347 18.8525 16.8908 18.5899 17.1533C18.3274 17.4159 17.9713 17.5634 17.6 17.5634H16.3624" stroke="#FEFEFE" stroke-linecap="round" stroke-linejoin="round"/>
</svg>
