<svg width="24" height="24" viewBox="0 0 24 24" fill="none" xmlns="http://www.w3.org/2000/svg">
<rect width="24" height="24" rx="12" fill="#FE7B08"/>
<path d="M12.004 13.5618H12.0367C12.7381 13.5805 13.2993 14.151 13.2993 14.8524C13.2993 15.4509 12.8924 15.9512 12.3407 16.1009V16.6246C12.3407 16.8116 12.191 16.9612 12.004 16.9612C11.817 16.9612 11.6673 16.8116 11.6673 16.6246V16.1009C11.3926 16.0269 11.1499 15.8646 10.9766 15.6389C10.8034 15.4133 10.7092 15.1369 10.7087 14.8524C10.7087 14.6653 10.8584 14.5157 11.0454 14.5157C11.2325 14.5157 11.3821 14.6653 11.3821 14.8524C11.3821 15.1984 11.658 15.4743 11.9993 15.4743C12.3407 15.4743 12.6212 15.1937 12.6212 14.8524C12.6212 14.511 12.3407 14.2305 11.9993 14.2305H11.9666C11.6302 14.2213 11.3106 14.0814 11.0758 13.8404C10.8409 13.5994 10.7092 13.2764 10.7087 12.9399C10.7087 12.3413 11.1156 11.841 11.6673 11.6914V11.1677C11.6673 10.9806 11.817 10.831 12.004 10.831C12.191 10.831 12.3407 10.9806 12.3407 11.1677V11.6914C12.8924 11.841 13.2993 12.3413 13.2993 12.9399C13.2993 13.1269 13.1496 13.2765 12.9626 13.2765C12.7755 13.2765 12.6259 13.1269 12.6259 12.9399C12.6259 12.5985 12.3453 12.318 12.004 12.318C11.6626 12.318 11.3821 12.5985 11.3821 12.9399C11.3821 13.2812 11.6626 13.5618 12.004 13.5618Z" fill="#FEFEFE"/>
<path d="M9.52197 6.90081L10.8247 8.42519L10.684 8.58231C8.00274 9.18364 6 11.5782 6 14.4409C6 16.9575 8.04248 19 10.5591 19H13.4442C15.9608 19 18.0033 16.958 18.0033 14.4414C18.008 11.5782 16.0053 9.18364 13.324 8.58231C13.3351 8.48349 13.3172 8.38361 13.2726 8.29473L14.3808 7.02613L14.4524 6.91578C14.5359 6.73357 14.5573 6.52896 14.5132 6.33342C14.4691 6.13787 14.362 5.96223 14.2083 5.8335C14.0547 5.70477 13.863 5.63008 13.6628 5.62091C13.4625 5.61175 13.2648 5.66862 13.1001 5.78278L12.7059 5.31518C12.6174 5.21622 12.5092 5.13701 12.3881 5.08271C12.267 5.0284 12.1358 5.00022 12.0031 5C11.8704 4.99978 11.7392 5.02753 11.6179 5.08143C11.4966 5.13533 11.3881 5.21418 11.2993 5.31284L10.8864 5.77389C10.7221 5.65736 10.5239 5.59822 10.3226 5.60563C10.1213 5.61303 9.92801 5.68657 9.77267 5.81486C9.61734 5.94315 9.5086 6.11905 9.46329 6.31535C9.41797 6.51165 9.4386 6.71741 9.52197 6.90081ZM11.2984 7.54844L10.5053 6.63194C10.6896 6.72056 10.898 6.74568 11.0981 6.70339C11.2982 6.66109 11.4786 6.55376 11.6112 6.39814L11.9853 5.91277L12.4005 6.40469C12.53 6.55525 12.7046 6.65994 12.8984 6.70317C13.0923 6.74639 13.2948 6.72584 13.476 6.64457L12.6867 7.54844H11.2984ZM6.9352 14.4409C6.9352 11.6409 9.20401 9.37209 12.004 9.37209C14.804 9.37209 17.0728 11.6409 17.0681 14.44V14.4409C17.0678 15.4019 16.6858 16.3234 16.0063 17.003C15.3268 17.6825 14.4052 18.0644 13.4442 18.0648H10.5591C9.59811 18.0644 8.67657 17.6825 7.99703 17.003C7.3175 16.3234 6.93557 15.4019 6.9352 14.4409Z" fill="#FEFEFE"/>
</svg>
