<svg width="24" height="24" viewBox="0 0 24 24" fill="none" xmlns="http://www.w3.org/2000/svg">
<rect width="24" height="24" rx="12" fill="#870FF1"/>
<path d="M19.8758 11.46L16.3887 5.47417C16.321 5.36324 16.2312 5.26718 16.1247 5.19189C16.0697 5.15216 16.0113 5.11714 15.9503 5.08722L15.9295 5.09515L17.0111 11.8676L9.65131 7.65553L9.49692 7.77605L9.39612 7.85535V16.2263L4.12829 11.9968L9.33852 7.85693L9.60011 7.65553L15.9287 5.09832V5.07533L15.9535 5.09039L15.9679 5.08484C15.8473 5.0329 15.7178 5.00411 15.5863 5H8.54975C8.42732 5.00238 8.30649 5.02794 8.19376 5.07533C8.13898 5.09878 8.08556 5.12525 8.03376 5.15462C7.87349 5.24151 7.73807 5.36728 7.64018 5.52016L4.12029 11.506C4.0567 11.6195 4.01723 11.7447 4.00429 11.8739V11.9033H4.00029V12.065C3.99922 12.0878 4.00109 12.1102 4.00589 12.1324C4.01833 12.2615 4.05726 12.3867 4.12029 12.5003L7.60818 18.4798C7.70508 18.633 7.84006 18.7588 8.00016 18.8454C8.05143 18.8757 8.10491 18.9022 8.16016 18.9247C8.27189 18.9717 8.3916 18.9972 8.51295 19H15.4863C15.515 18.9991 15.5435 18.9968 15.5719 18.9929C15.6729 18.9808 15.7716 18.9541 15.8647 18.9136C15.9573 18.8742 16.0448 18.8242 16.1255 18.7645C16.207 18.7047 16.2792 18.6333 16.3399 18.5528C16.3574 18.5304 16.3737 18.5071 16.3887 18.483L19.8766 12.4956C19.9344 12.3903 19.9715 12.2752 19.9862 12.1562C19.9952 12.0972 19.9998 12.0375 19.9998 11.9778C20.0034 11.7976 19.9608 11.6194 19.8758 11.46ZM9.23613 16.5831L8.01136 18.6836H7.95537L7.90977 18.6448L4.45548 12.7144L4.60267 12.8318L4.55627 12.7525L9.18333 16.4674L9.26892 16.5348L9.23613 16.5831ZM17.0759 12.3584L16.0463 18.7938L9.9097 16.4602L9.80731 16.4214L16.9751 12.3196L17.0759 12.2569V12.3584ZM17.5191 11.8438H17.3591V11.8026L17.3415 11.6979L16.4135 5.87064L16.5447 6.09425L16.5151 5.90949L19.9694 11.8406L17.5191 11.8438Z" fill="white"/>
</svg>
