<svg width="24" height="24" viewBox="0 0 24 24" fill="none" xmlns="http://www.w3.org/2000/svg">
<rect width="24" height="24" rx="12" fill="#F6174F"/>
<path d="M6.162 5.57129C6.17438 5.41329 6.24427 5.26639 6.35715 5.16112C6.47002 5.05586 6.61719 5.00034 6.76805 5.00611C6.9189 5.01188 7.06184 5.0785 7.16712 5.19211C7.27241 5.30571 7.33194 5.45757 7.33333 5.61609V8.76236C7.33333 8.87841 7.37723 8.98971 7.45537 9.07177C7.53351 9.15383 7.63949 9.19993 7.75 9.19993C7.86051 9.19993 7.96649 9.15383 8.04463 9.07177C8.12277 8.98971 8.16667 8.87841 8.16667 8.76236V5.52508C8.16667 5.38582 8.21935 5.25226 8.31311 5.15379C8.40688 5.05532 8.53406 5 8.66667 5C8.79927 5 8.92645 5.05532 9.02022 5.15379C9.11399 5.25226 9.16667 5.38582 9.16667 5.52508V8.76236C9.16667 8.87841 9.21057 8.98971 9.28871 9.07177C9.36685 9.15383 9.47283 9.19993 9.58333 9.19993C9.69384 9.19993 9.79982 9.15383 9.87796 9.07177C9.9561 8.98971 10 8.87841 10 8.76236V5.61609C10.0014 5.45757 10.0609 5.30571 10.1662 5.19211C10.2715 5.0785 10.4144 5.01188 10.5653 5.00611C10.7161 5.00034 10.8633 5.05586 10.9762 5.16112C11.0891 5.26639 11.159 5.41329 11.1713 5.57129C11.2 5.99975 11.3333 8.05946 11.3333 9.20063C11.3333 10.1458 10.8867 10.9817 10.2053 11.4879C10.0613 11.595 10.0267 11.7084 10.03 11.7658C10.112 13.0806 10.3333 16.6792 10.3333 17.2497C10.3333 17.7139 10.1577 18.1591 9.84518 18.4874C9.53262 18.8156 9.10869 19 8.66667 19C8.22464 19 7.80072 18.8156 7.48816 18.4874C7.17559 18.1591 7 17.7139 7 17.2497C7 16.6785 7.22133 13.0806 7.30333 11.7658C7.30667 11.7084 7.272 11.595 7.128 11.4879C6.7794 11.2293 6.49501 10.8865 6.29873 10.4885C6.10244 10.0905 6 9.64885 6 9.20063C6 8.05946 6.13333 5.99975 6.162 5.57129ZM12.3333 9.0256C12.3333 7.95795 12.7372 6.93402 13.4561 6.17907C14.175 5.42412 15.15 5 16.1667 5C16.2993 5 16.4265 5.05532 16.5202 5.15379C16.614 5.25226 16.6667 5.38582 16.6667 5.52508V11.476C16.6667 11.6986 16.7373 12.8027 16.8167 14.0258L16.82 14.0839C16.9067 15.4197 17 16.8724 17 17.2497C17 17.7139 16.8244 18.1591 16.5118 18.4874C16.1993 18.8156 15.7754 19 15.3333 19C14.8913 19 14.4674 18.8156 14.1548 18.4874C13.8423 18.1591 13.6667 17.7139 13.6667 17.2497C13.6667 16.8899 13.752 15.4218 13.8347 14.0755C13.876 13.3957 13.918 12.7369 13.9493 12.2482L13.9647 12.0011H13.5C13.3468 12.0011 13.1951 11.9694 13.0535 11.9078C12.912 11.8462 12.7834 11.756 12.675 11.6422C12.5667 11.5284 12.4808 11.3934 12.4221 11.2447C12.3635 11.0961 12.3333 10.9368 12.3333 10.7759V9.0256Z" fill="#FEFEFE"/>
</svg>
