<svg width="24" height="24" viewBox="0 0 24 24" fill="none" xmlns="http://www.w3.org/2000/svg">
<rect width="24" height="24" rx="12" fill="#089314"/>
<path d="M7.79999 8.79999H10.6" stroke="#FEFEFE" stroke-width="1.3" stroke-linecap="round" stroke-linejoin="round"/>
<path d="M18.1831 9.5H16.3617C15.1122 9.5 14.1 10.4401 14.1 11.6C14.1 12.7599 15.1129 13.7 16.361 13.7H18.1831C18.2419 13.7 18.2706 13.7 18.2951 13.6986C18.6731 13.6755 18.9741 13.3962 18.9986 13.0455C19 13.0231 19 12.9958 19 12.9419V10.2581C19 10.2042 19 10.1769 18.9986 10.1545C18.9734 9.8038 18.6731 9.5245 18.2951 9.5014C18.2713 9.5 18.2419 9.5 18.1831 9.5Z" stroke="#FEFEFE" stroke-width="1.3"/>
<path d="M18.2755 9.5C18.2209 8.1896 18.0459 7.386 17.4796 6.8204C16.6599 6 15.3397 6 12.7 6H10.6C7.9603 6 6.6401 6 5.8204 6.8204C5.0007 7.6408 5 8.9603 5 11.6C5 14.2397 5 15.5599 5.8204 16.3796C6.6408 17.1993 7.9603 17.2 10.6 17.2H12.7C15.3397 17.2 16.6599 17.2 17.4796 16.3796C18.0459 15.814 18.2216 15.0104 18.2755 13.7" stroke="#FEFEFE" stroke-width="1.3"/>
<path d="M16.1937 11.6H16.2007" stroke="#FEFEFE" stroke-width="1.3" stroke-linecap="round" stroke-linejoin="round"/>
</svg>
